REM DIRINDEX 1\3,1\4,1\5,1\6,1\2\7,1\2\8,1\2\9,1\10
REM DIRNAME cjc056,folder01,folder02,folder03,folder04,folder05,folder06,folder07,folder08,folder09
TITLE ""
FILE "1-33 Level 2-279-290.mp3" MP3
  TRACK 01 AUDIO
    TITLE "0:"
    INDEX 01 00:00:00
  TRACK 02 AUDIO
    TITLE "7:cjc056_0952"
    INDEX 01 00:00:05
  TRACK 03 AUDIO
    TITLE "0:"
    INDEX 01 00:01:09
  TRACK 04 AUDIO
    TITLE "8:cjc056_0953"
    INDEX 01 00:01:24
  TRACK 05 AUDIO
    TITLE "0:"
    INDEX 01 00:02:24
  TRACK 06 AUDIO
    TITLE "7:cjc056_0954"
    INDEX 01 00:02:36
  TRACK 07 AUDIO
    TITLE "0:"
    INDEX 01 00:04:19
  TRACK 08 AUDIO
    TITLE "8:cjc056_0955"
    INDEX 01 00:04:46
  TRACK 09 AUDIO
    TITLE "0:"
    INDEX 01 00:05:65
  TRACK 10 AUDIO
    TITLE "9:cjc056_0956"
    INDEX 01 00:05:73
  TRACK 11 AUDIO
    TITLE "0:"
    INDEX 01 00:07:41
  TRACK 12 AUDIO
    TITLE "7:cjc056_0957"
    INDEX 01 00:08:17
  TRACK 13 AUDIO
    TITLE "0:"
    INDEX 01 00:09:20
  TRACK 14 AUDIO
    TITLE "8:cjc056_0958"
    INDEX 01 00:09:34
  TRACK 15 AUDIO
    TITLE "0:"
    INDEX 01 00:10:35
  TRACK 16 AUDIO
    TITLE "9:cjc056_0959"
    INDEX 01 00:10:49
  TRACK 17 AUDIO
    TITLE "0:"
    INDEX 01 00:12:11
  TRACK 18 AUDIO
    TITLE "8:cjc056_0960"
    INDEX 01 00:12:38
  TRACK 19 AUDIO
    TITLE "0:"
    INDEX 01 00:13:47
  TRACK 20 AUDIO
    TITLE "9:cjc056_0961"
    INDEX 01 00:13:61
  TRACK 21 AUDIO
    TITLE "0:"
    INDEX 01 00:15:07
  TRACK 22 AUDIO
    TITLE "7:cjc056_0962"
    INDEX 01 00:15:60
  TRACK 23 AUDIO
    TITLE "0:"
    INDEX 01 00:16:57
  TRACK 24 AUDIO
    TITLE "8:cjc056_0963"
    INDEX 01 00:16:71
  TRACK 25 AUDIO
    TITLE "0:"
    INDEX 01 00:18:19
  TRACK 26 AUDIO
    TITLE "9:cjc056_0964"
    INDEX 01 00:18:33
  TRACK 27 AUDIO
    TITLE "0:"
    INDEX 01 00:20:49
  TRACK 28 AUDIO
    TITLE "7:cjc056_0965"
    INDEX 01 00:21:25
  TRACK 29 AUDIO
    TITLE "0:"
    INDEX 01 00:22:29
  TRACK 30 AUDIO
    TITLE "8:cjc056_0966"
    INDEX 01 00:22:42
  TRACK 31 AUDIO
    TITLE "0:"
    INDEX 01 00:23:50
  TRACK 32 AUDIO
    TITLE "9:cjc056_0967"
    INDEX 01 00:23:63
  TRACK 33 AUDIO
    TITLE "0:"
    INDEX 01 00:25:37
  TRACK 34 AUDIO
    TITLE "7:cjc056_0968"
    INDEX 01 00:26:09
  TRACK 35 AUDIO
    TITLE "0:"
    INDEX 01 00:27:14
  TRACK 36 AUDIO
    TITLE "8:cjc056_0969"
    INDEX 01 00:27:26
  TRACK 37 AUDIO
    TITLE "0:"
    INDEX 01 00:28:25
  TRACK 38 AUDIO
    TITLE "9:cjc056_0970"
    INDEX 01 00:28:39
  TRACK 39 AUDIO
    TITLE "0:"
    INDEX 01 00:30:14
  TRACK 40 AUDIO
    TITLE "7:cjc056_0971"
    INDEX 01 00:30:63
  TRACK 41 AUDIO
    TITLE "0:"
    INDEX 01 00:31:65
  TRACK 42 AUDIO
    TITLE "8:cjc056_0972"
    INDEX 01 00:32:03
  TRACK 43 AUDIO
    TITLE "0:"
    INDEX 01 00:33:26
  TRACK 44 AUDIO
    TITLE "9:cjc056_0973"
    INDEX 01 00:33:38
  TRACK 45 AUDIO
    TITLE "0:"
    INDEX 01 00:35:02
  TRACK 46 AUDIO
    TITLE "7:cjc056_0974"
    INDEX 01 00:35:51
  TRACK 47 AUDIO
    TITLE "0:"
    INDEX 01 00:36:66
  TRACK 48 AUDIO
    TITLE "8:cjc056_0975"
    INDEX 01 00:37:05
  TRACK 49 AUDIO
    TITLE "0:"
    INDEX 01 00:38:06
  TRACK 50 AUDIO
    TITLE "9:cjc056_0976"
    INDEX 01 00:38:20
  TRACK 51 AUDIO
    TITLE "0:"
    INDEX 01 00:39:68
  TRACK 52 AUDIO
    TITLE "7:cjc056_0977"
    INDEX 01 00:40:44
  TRACK 53 AUDIO
    TITLE "0:"
    INDEX 01 00:41:40
  TRACK 54 AUDIO
    TITLE "8:cjc056_0978"
    INDEX 01 00:41:53
  TRACK 55 AUDIO
    TITLE "0:"
    INDEX 01 00:42:55
  TRACK 56 AUDIO
    TITLE "9:cjc056_0979"
    INDEX 01 00:42:66
  TRACK 57 AUDIO
    TITLE "0:"
    INDEX 01 00:44:28
  TRACK 58 AUDIO
    TITLE "7:cjc056_0980"
    INDEX 01 00:45:04
  TRACK 59 AUDIO
    TITLE "0:"
    INDEX 01 00:46:06
  TRACK 60 AUDIO
    TITLE "8:cjc056_0981"
    INDEX 01 00:46:13
  TRACK 61 AUDIO
    TITLE "0:"
    INDEX 01 00:47:70
  TRACK 62 AUDIO
    TITLE "9:cjc056_0982"
    INDEX 01 00:48:08
  TRACK 63 AUDIO
    TITLE "0:"
    INDEX 01 00:50:64
  TRACK 64 AUDIO
    TITLE "7:cjc056_0983"
    INDEX 01 00:51:42
  TRACK 65 AUDIO
    TITLE "0:"
    INDEX 01 00:52:53
  TRACK 66 AUDIO
    TITLE "8:cjc056_0984"
    INDEX 01 00:52:65
  TRACK 67 AUDIO
    TITLE "0:"
    INDEX 01 00:54:62
  TRACK 68 AUDIO
    TITLE "9:cjc056_0985"
    INDEX 01 00:55:03
  TRACK 69 AUDIO
    TITLE "0:"
    INDEX 01 00:57:62
  TRACK 70 AUDIO
    TITLE "7:cjc056_0986"
    INDEX 01 00:58:38
  TRACK 71 AUDIO
    TITLE "0:"
    INDEX 01 00:59:51
  TRACK 72 AUDIO
    TITLE "8:cjc056_0987"
    INDEX 01 00:59:61
  TRACK 73 AUDIO
    TITLE "0:"
    INDEX 01 01:00:74
  TRACK 74 AUDIO
    TITLE "9:cjc056_0988"
    INDEX 01 01:01:13
  TRACK 75 AUDIO
    TITLE "0:"
    INDEX 01 01:04:01
  TRACK 76 AUDIO
    TITLE "7:cjc056_0989"
    INDEX 01 01:04:52
  TRACK 77 AUDIO
    TITLE "0:"
    INDEX 01 01:06:04
  TRACK 78 AUDIO
    TITLE "8:cjc056_0990"
    INDEX 01 01:06:18
  TRACK 79 AUDIO
    TITLE "0:"
    INDEX 01 01:07:21
  TRACK 80 AUDIO
    TITLE "9:cjc056_0991"
    INDEX 01 01:07:37
  TRACK 81 AUDIO
    TITLE "0:"
    INDEX 01 01:09:12
